<svg width="220" height="220" viewBox="0 0 220 220" fill="none" xmlns="http://www.w3.org/2000/svg">
  <rect width="220" height="220" rx="48" fill="url(#paint0_linear_1_2)"/>
  <rect x="24" y="24" width="172" height="172" rx="36" fill="url(#paint1_linear_1_2)" fill-opacity="0.72" stroke="url(#paint2_linear_1_2)" stroke-width="2"/>
  <path d="M56 66.5C56 59.5964 61.5964 54 68.5 54H104.685C113.365 54 121.69 57.4482 127.829 63.5858L130.899 66.6569C137.038 72.7945 145.362 76.2426 154.043 76.2426H160C166.627 76.2426 172 81.6152 172 88.2426V149.5C172 156.404 166.404 162 159.5 162H123.601C115.118 162 106.981 158.635 100.981 152.649L99.0172 150.69C93.0175 144.704 84.8807 141.339 76.3987 141.339H68.5C61.5964 141.339 56 135.742 56 128.839V66.5Z" fill="url(#paint3_linear_1_2)"/>
  <path d="M82 86C82 81.5817 85.5817 78 90 78H111.055C117.155 78 123.005 80.4232 127.318 84.7365C131.632 89.0499 137.482 91.4731 143.582 91.4731H145C149.418 91.4731 153 95.0548 153 99.4731V136C153 140.418 149.418 144 145 144H124.246C118.283 144 112.564 141.631 108.345 137.413C104.127 133.194 98.4074 130.825 92.4427 130.825H90C85.5817 130.825 82 127.243 82 122.825V86Z" fill="#0E1421"/>
  <path d="M115.5 55L118.601 64.5439H128.634L120.517 70.4122L123.618 79.9561L115.5 74.0878L107.382 79.9561L110.483 70.4122L102.366 64.5439H112.399L115.5 55Z" fill="#FFD187"/>
  <path d="M95 101H140" stroke="#F4EBDC" stroke-opacity="0.68" stroke-width="5" stroke-linecap="round"/>
  <path d="M95 114H132" stroke="#F4EBDC" stroke-opacity="0.55" stroke-width="5" stroke-linecap="round"/>
  <path d="M95 127H121" stroke="#F4EBDC" stroke-opacity="0.42" stroke-width="5" stroke-linecap="round"/>
  <defs>
    <linearGradient id="paint0_linear_1_2" x1="25.5" y1="18.5" x2="194.5" y2="202" gradientUnits="userSpaceOnUse">
      <stop stop-color="#1E2633"/>
      <stop offset="0.45" stop-color="#101722"/>
      <stop offset="1" stop-color="#0A0F17"/>
    </linearGradient>
    <linearGradient id="paint1_linear_1_2" x1="42.5" y1="34" x2="177" y2="187" gradientUnits="userSpaceOnUse">
      <stop stop-color="#253044"/>
      <stop offset="1" stop-color="#101520" stop-opacity="0.2"/>
    </linearGradient>
    <linearGradient id="paint2_linear_1_2" x1="34" y1="41" x2="184" y2="185.5" gradientUnits="userSpaceOnUse">
      <stop stop-color="#FFD187" stop-opacity="0.8"/>
      <stop offset="1" stop-color="#6B7A96" stop-opacity="0.2"/>
    </linearGradient>
    <linearGradient id="paint3_linear_1_2" x1="68.5" y1="54" x2="155.5" y2="162" gradientUnits="userSpaceOnUse">
      <stop stop-color="#F4EBDC"/>
      <stop offset="1" stop-color="#D9C1A1"/>
    </linearGradient>
  </defs>
</svg>
